<svg xmlns="http://www.w3.org/2000/svg" xmlns:xlink="http://www.w3.org/1999/xlink" width="1080" zoomAndPan="magnify" viewBox="0 0 810 809.999993" height="1080" preserveAspectRatio="xMidYMid meet" version="1.0"><defs><g/></defs><g fill="#f70405" fill-opacity="1"><g transform="translate(680.403017, 73.916612)"><g><path d="M -234.890625 0 L -60.375 486.75 L -136.78125 486.75 L -206.578125 283 L -282.046875 63.203125 L -285.828125 63.203125 L -361.28125 283 L -431.09375 486.75 L -505.609375 486.75 L -331.109375 0 Z M -234.890625 0 "/></g></g></g><g fill="#f70405" fill-opacity="1"><g transform="translate(251.00671, 482.450333)"><g><path d="M 111.421875 0.234375 C 110.359375 0.234375 109.441406 0.191406 108.671875 0.109375 C 107.898438 0.0351562 107.132812 -0.457031 106.375 -1.375 C 105.457031 -2.601562 104.613281 -3.828125 103.84375 -5.046875 C 103.082031 -6.273438 102.238281 -7.503906 101.3125 -8.734375 C 99.632812 -11.335938 98.03125 -14.015625 96.5 -16.765625 C 94.96875 -19.523438 93.359375 -22.285156 91.671875 -25.046875 C 89.984375 -27.953125 88.296875 -30.554688 86.609375 -32.859375 C 86.003906 -33.773438 85.429688 -34.726562 84.890625 -35.71875 C 84.359375 -36.71875 83.785156 -37.753906 83.171875 -38.828125 C 81.484375 -41.734375 79.601562 -44.601562 77.53125 -47.4375 C 75.46875 -50.269531 73.441406 -53.066406 71.453125 -55.828125 C 69.765625 -58.429688 68.15625 -60.992188 66.625 -63.515625 C 65.09375 -66.046875 63.484375 -68.613281 61.796875 -71.21875 C 60.117188 -74.28125 58.515625 -77.304688 56.984375 -80.296875 C 55.453125 -83.285156 53.765625 -86.234375 51.921875 -89.140625 C 48.398438 -94.503906 45.03125 -99.976562 41.8125 -105.5625 C 38.59375 -111.15625 35.222656 -116.632812 31.703125 -122 C 29.410156 -125.519531 27.148438 -128.890625 24.921875 -132.109375 C 22.703125 -135.328125 20.367188 -138.539062 17.921875 -141.75 C 15.929688 -144.351562 14.09375 -146.957031 12.40625 -149.5625 C 10.71875 -152.164062 9.265625 -154.925781 8.046875 -157.84375 C 13.554688 -157.84375 19.101562 -157.765625 24.6875 -157.609375 C 30.28125 -157.453125 35.835938 -157.375 41.359375 -157.375 C 43.503906 -157.375 45.644531 -157.453125 47.78125 -157.609375 C 49.925781 -157.765625 52.070312 -157.84375 54.21875 -157.84375 C 57.894531 -157.988281 61.53125 -158.023438 65.125 -157.953125 C 68.726562 -157.878906 72.289062 -157.84375 75.8125 -157.84375 C 77.5 -157.84375 79.1875 -157.84375 80.875 -157.84375 C 82.5625 -157.84375 84.242188 -157.84375 85.921875 -157.84375 C 86.691406 -157.84375 87.6875 -157.878906 88.90625 -157.953125 C 90.132812 -158.023438 91.054688 -157.910156 91.671875 -157.609375 C 92.429688 -157.148438 93.15625 -156.191406 93.84375 -154.734375 C 94.539062 -153.273438 95.117188 -152.164062 95.578125 -151.40625 C 97.109375 -148.644531 98.789062 -145.734375 100.625 -142.671875 C 102.46875 -140.222656 104.304688 -137.65625 106.140625 -134.96875 C 107.984375 -132.289062 109.671875 -129.578125 111.203125 -126.828125 C 112.878906 -124.066406 114.445312 -121.269531 115.90625 -118.4375 C 117.363281 -115.601562 118.9375 -112.734375 120.625 -109.828125 C 122.457031 -106.910156 124.289062 -103.957031 126.125 -100.96875 C 127.96875 -97.988281 129.882812 -94.96875 131.875 -91.90625 C 133.101562 -90.21875 134.289062 -88.492188 135.4375 -86.734375 C 136.582031 -84.972656 137.691406 -83.171875 138.765625 -81.328125 C 139.992188 -79.796875 141.179688 -78.1875 142.328125 -76.5 C 143.472656 -74.820312 144.429688 -73.0625 145.203125 -71.21875 C 152.398438 -81.945312 159.289062 -92.820312 165.875 -103.84375 C 172.46875 -114.875 179.207031 -125.828125 186.09375 -136.703125 C 187.78125 -139.460938 189.425781 -142.296875 191.03125 -145.203125 C 192.644531 -148.109375 194.296875 -150.863281 195.984375 -153.46875 C 196.441406 -154.238281 196.859375 -154.890625 197.234375 -155.421875 C 197.617188 -155.960938 198.117188 -156.382812 198.734375 -156.6875 C 199.804688 -157.300781 201.066406 -157.566406 202.515625 -157.484375 C 203.972656 -157.410156 205.238281 -157.375 206.3125 -157.375 C 212.894531 -157.375 219.40625 -157.335938 225.84375 -157.265625 C 232.28125 -157.191406 238.789062 -157.226562 245.375 -157.375 C 251.195312 -157.53125 256.976562 -157.609375 262.71875 -157.609375 C 268.457031 -157.609375 274.238281 -157.457031 280.0625 -157.15625 C 279.445312 -153.78125 277.988281 -150.5625 275.6875 -147.5 C 273.394531 -144.4375 271.253906 -141.375 269.265625 -138.3125 C 266.816406 -134.476562 264.40625 -130.644531 262.03125 -126.8125 C 259.65625 -122.988281 257.242188 -119.160156 254.796875 -115.328125 C 252.492188 -111.960938 250.421875 -108.441406 248.578125 -104.765625 C 246.742188 -101.085938 244.753906 -97.488281 242.609375 -93.96875 C 240.316406 -90.132812 238.019531 -86.378906 235.71875 -82.703125 C 233.425781 -79.035156 231.128906 -75.363281 228.828125 -71.6875 C 226.679688 -68.3125 224.5 -65.015625 222.28125 -61.796875 C 220.0625 -58.585938 217.878906 -55.21875 215.734375 -51.6875 C 213.742188 -48.320312 211.632812 -44.953125 209.40625 -41.578125 C 207.1875 -38.210938 205.007812 -34.84375 202.875 -31.46875 C 200.570312 -28.101562 198.347656 -24.617188 196.203125 -21.015625 C 194.054688 -17.421875 191.757812 -14.015625 189.3125 -10.796875 C 188.695312 -10.035156 188.117188 -9.234375 187.578125 -8.390625 C 187.046875 -7.546875 186.476562 -6.738281 185.875 -5.96875 C 185.40625 -5.351562 184.941406 -4.585938 184.484375 -3.671875 C 184.023438 -2.753906 183.488281 -1.988281 182.875 -1.375 C 181.800781 -0.613281 180.5 -0.234375 178.96875 -0.234375 C 177.4375 -0.234375 176.0625 -0.234375 174.84375 -0.234375 C 172.238281 -0.078125 169.671875 -0.0703125 167.140625 -0.21875 C 164.617188 -0.375 162.054688 -0.453125 159.453125 -0.453125 C 156.691406 -0.453125 153.929688 -0.453125 151.171875 -0.453125 C 148.421875 -0.453125 145.664062 -0.453125 142.90625 -0.453125 C 140.457031 -0.453125 137.96875 -0.453125 135.4375 -0.453125 C 132.90625 -0.453125 130.335938 -0.453125 127.734375 -0.453125 C 126.359375 -0.453125 124.976562 -0.453125 123.59375 -0.453125 C 122.21875 -0.453125 120.84375 -0.453125 119.46875 -0.453125 C 118.238281 -0.453125 116.9375 -0.335938 115.5625 -0.109375 C 114.1875 0.117188 112.804688 0.234375 111.421875 0.234375 Z M 108.90625 -3.21875 C 111.050781 -3.21875 113.234375 -3.289062 115.453125 -3.4375 C 117.671875 -3.59375 119.851562 -3.671875 122 -3.671875 C 124.144531 -3.671875 126.363281 -3.671875 128.65625 -3.671875 C 130.957031 -3.671875 133.253906 -3.671875 135.546875 -3.671875 C 139.992188 -3.671875 144.398438 -3.707031 148.765625 -3.78125 C 153.128906 -3.863281 157.457031 -3.828125 161.75 -3.671875 C 163.882812 -3.671875 166.023438 -3.59375 168.171875 -3.4375 C 170.316406 -3.289062 172.539062 -3.296875 174.84375 -3.453125 C 175.601562 -3.597656 176.554688 -3.632812 177.703125 -3.5625 C 178.859375 -3.488281 179.742188 -3.601562 180.359375 -3.90625 C 181.117188 -4.207031 181.804688 -5.007812 182.421875 -6.3125 C 183.035156 -7.613281 183.570312 -8.570312 184.03125 -9.1875 C 186.175781 -12.25 188.203125 -15.3125 190.109375 -18.375 C 192.023438 -21.4375 193.984375 -24.425781 195.984375 -27.34375 C 200.421875 -33.769531 204.707031 -40.273438 208.84375 -46.859375 C 212.976562 -53.453125 217.191406 -59.960938 221.484375 -66.390625 C 225.921875 -72.984375 230.050781 -79.609375 233.875 -86.265625 C 237.707031 -92.929688 241.539062 -99.632812 245.375 -106.375 C 249.96875 -114.488281 254.90625 -122.453125 260.1875 -130.265625 C 265.476562 -138.078125 270.570312 -145.96875 275.46875 -153.9375 C 251.726562 -154.238281 227.910156 -154.238281 204.015625 -153.9375 C 202.640625 -153.9375 201.601562 -153.894531 200.90625 -153.8125 C 200.21875 -153.738281 199.492188 -153.085938 198.734375 -151.859375 C 197.960938 -150.484375 197.15625 -149.066406 196.3125 -147.609375 C 195.476562 -146.160156 194.675781 -144.742188 193.90625 -143.359375 C 192.375 -140.453125 190.726562 -137.617188 188.96875 -134.859375 C 187.207031 -132.109375 185.40625 -129.351562 183.5625 -126.59375 C 180.195312 -121.382812 176.941406 -116.097656 173.796875 -110.734375 C 170.660156 -105.378906 167.484375 -100.019531 164.265625 -94.65625 C 162.429688 -91.75 160.59375 -88.765625 158.75 -85.703125 C 156.914062 -82.640625 155.003906 -79.648438 153.015625 -76.734375 C 151.785156 -74.742188 150.519531 -72.789062 149.21875 -70.875 C 147.914062 -68.957031 146.347656 -67.234375 144.515625 -65.703125 C 143.128906 -67.847656 141.820312 -70.03125 140.59375 -72.25 C 139.375 -74.476562 138.078125 -76.585938 136.703125 -78.578125 C 135.015625 -81.179688 133.289062 -83.742188 131.53125 -86.265625 C 129.769531 -88.796875 128.203125 -91.441406 126.828125 -94.203125 C 125.140625 -97.265625 123.300781 -100.210938 121.3125 -103.046875 C 119.320312 -105.878906 117.484375 -108.75 115.796875 -111.65625 C 114.265625 -114.414062 112.734375 -117.25 111.203125 -120.15625 C 109.671875 -123.070312 107.984375 -125.832031 106.140625 -128.4375 C 104.460938 -130.882812 102.816406 -133.367188 101.203125 -135.890625 C 99.597656 -138.421875 97.953125 -140.910156 96.265625 -143.359375 C 95.492188 -144.585938 94.765625 -145.851562 94.078125 -147.15625 C 93.390625 -148.457031 92.664062 -149.796875 91.90625 -151.171875 C 91.75 -151.785156 91.441406 -152.4375 90.984375 -153.125 C 90.523438 -153.8125 89.988281 -154.3125 89.375 -154.625 C 88.757812 -154.925781 87.914062 -155 86.84375 -154.84375 C 85.769531 -154.695312 84.925781 -154.625 84.3125 -154.625 C 78.1875 -154.625 72.0625 -154.625 65.9375 -154.625 C 59.8125 -154.625 53.609375 -154.46875 47.328125 -154.15625 C 41.660156 -154.007812 35.992188 -154.050781 30.328125 -154.28125 C 24.660156 -154.507812 18.914062 -154.625 13.09375 -154.625 C 14.625 -152.019531 16.347656 -149.488281 18.265625 -147.03125 C 20.179688 -144.582031 21.984375 -142.054688 23.671875 -139.453125 C 25.660156 -137.003906 27.535156 -134.398438 29.296875 -131.640625 C 31.054688 -128.890625 32.851562 -126.132812 34.6875 -123.375 C 37.90625 -118.476562 41.046875 -113.5 44.109375 -108.4375 C 47.171875 -103.382812 50.234375 -98.332031 53.296875 -93.28125 C 56.359375 -88.375 59.226562 -83.316406 61.90625 -78.109375 C 64.59375 -72.898438 67.546875 -67.847656 70.765625 -62.953125 C 72.453125 -60.503906 74.175781 -58.015625 75.9375 -55.484375 C 77.695312 -52.953125 79.421875 -50.382812 81.109375 -47.78125 C 81.867188 -46.71875 82.671875 -45.609375 83.515625 -44.453125 C 84.359375 -43.304688 85.085938 -42.117188 85.703125 -40.890625 C 86.304688 -40.128906 86.800781 -39.285156 87.1875 -38.359375 C 87.570312 -37.441406 88.070312 -36.523438 88.6875 -35.609375 C 90.363281 -33.160156 92.082031 -30.632812 93.84375 -28.03125 C 95.613281 -25.425781 97.1875 -22.742188 98.5625 -19.984375 C 100.09375 -17.234375 101.703125 -14.363281 103.390625 -11.375 C 105.078125 -8.382812 106.914062 -5.664062 108.90625 -3.21875 Z M 108.90625 -3.21875 "/></g></g></g><g fill="#ffffff" fill-opacity="1"><g transform="translate(135.791584, 684.342968)"><g><path d="M 63.640625 -21.515625 L 18.765625 -21.515625 L 9.09375 0 L 0.234375 0 L 37.0625 -80.5625 L 45.46875 -80.5625 L 82.296875 0 L 73.3125 0 Z M 60.546875 -28.421875 L 41.203125 -71.703125 L 21.875 -28.421875 Z M 60.546875 -28.421875 "/></g></g></g><g fill="#ffffff" fill-opacity="1"><g transform="translate(218.30818, 684.342968)"><g><path d="M 27.625 0.578125 C 22.707031 0.578125 18.003906 -0.128906 13.515625 -1.546875 C 9.035156 -2.972656 5.53125 -4.757812 3 -6.90625 L 6.671875 -13.34375 C 9.203125 -11.351562 12.382812 -9.722656 16.21875 -8.453125 C 20.0625 -7.191406 24.054688 -6.5625 28.203125 -6.5625 C 33.722656 -6.5625 37.804688 -7.421875 40.453125 -9.140625 C 43.097656 -10.867188 44.421875 -13.304688 44.421875 -16.453125 C 44.421875 -18.679688 43.691406 -20.425781 42.234375 -21.6875 C 40.773438 -22.957031 38.929688 -23.914062 36.703125 -24.5625 C 34.484375 -25.21875 31.535156 -25.851562 27.859375 -26.46875 C 22.941406 -27.394531 18.988281 -28.335938 16 -29.296875 C 13.007812 -30.253906 10.457031 -31.882812 8.34375 -34.1875 C 6.226562 -36.488281 5.171875 -39.671875 5.171875 -43.734375 C 5.171875 -48.796875 7.28125 -52.9375 11.5 -56.15625 C 15.726562 -59.382812 21.601562 -61 29.125 -61 C 33.03125 -61 36.941406 -60.476562 40.859375 -59.4375 C 44.773438 -58.40625 48 -57.046875 50.53125 -55.359375 L 46.953125 -48.796875 C 41.972656 -52.253906 36.03125 -53.984375 29.125 -53.984375 C 23.90625 -53.984375 19.96875 -53.0625 17.3125 -51.21875 C 14.664062 -49.375 13.34375 -46.957031 13.34375 -43.96875 C 13.34375 -41.664062 14.09375 -39.820312 15.59375 -38.4375 C 17.09375 -37.0625 18.953125 -36.046875 21.171875 -35.390625 C 23.398438 -34.734375 26.472656 -34.0625 30.390625 -33.375 C 35.222656 -32.457031 39.09375 -31.535156 42 -30.609375 C 44.914062 -29.691406 47.410156 -28.117188 49.484375 -25.890625 C 51.554688 -23.671875 52.59375 -20.601562 52.59375 -16.6875 C 52.59375 -11.394531 50.382812 -7.191406 45.96875 -4.078125 C 41.5625 -0.972656 35.445312 0.578125 27.625 0.578125 Z M 27.625 0.578125 "/></g></g></g><g fill="#ffffff" fill-opacity="1"><g transform="translate(274.585191, 684.342968)"><g><path d="M 36.484375 0.578125 C 30.492188 0.578125 25.140625 -0.722656 20.421875 -3.328125 C 15.703125 -5.941406 12 -9.609375 9.3125 -14.328125 C 6.632812 -19.046875 5.296875 -24.359375 5.296875 -30.265625 C 5.296875 -36.171875 6.632812 -41.460938 9.3125 -46.140625 C 12 -50.828125 15.703125 -54.472656 20.421875 -57.078125 C 25.140625 -59.691406 30.492188 -61 36.484375 -61 C 41.703125 -61 46.363281 -59.984375 50.46875 -57.953125 C 54.570312 -55.921875 57.8125 -52.945312 60.1875 -49.03125 L 54.09375 -44.890625 C 52.101562 -47.878906 49.570312 -50.117188 46.5 -51.609375 C 43.425781 -53.109375 40.085938 -53.859375 36.484375 -53.859375 C 32.109375 -53.859375 28.175781 -52.878906 24.6875 -50.921875 C 21.195312 -48.972656 18.472656 -46.191406 16.515625 -42.578125 C 14.554688 -38.972656 13.578125 -34.867188 13.578125 -30.265625 C 13.578125 -25.585938 14.554688 -21.460938 16.515625 -17.890625 C 18.472656 -14.328125 21.195312 -11.566406 24.6875 -9.609375 C 28.175781 -7.648438 32.109375 -6.671875 36.484375 -6.671875 C 40.085938 -6.671875 43.425781 -7.398438 46.5 -8.859375 C 49.570312 -10.316406 52.101562 -12.539062 54.09375 -15.53125 L 60.1875 -11.390625 C 57.8125 -7.484375 54.550781 -4.507812 50.40625 -2.46875 C 46.269531 -0.4375 41.628906 0.578125 36.484375 0.578125 Z M 36.484375 0.578125 "/></g></g></g><g fill="#ffffff" fill-opacity="1"><g transform="translate(339.378555, 684.342968)"><g><path d="M 64.109375 -27.734375 L 13.46875 -27.734375 C 13.925781 -21.441406 16.34375 -16.359375 20.71875 -12.484375 C 25.09375 -8.609375 30.617188 -6.671875 37.296875 -6.671875 C 41.054688 -6.671875 44.507812 -7.34375 47.65625 -8.6875 C 50.800781 -10.03125 53.523438 -12.003906 55.828125 -14.609375 L 60.421875 -9.328125 C 57.734375 -6.097656 54.375 -3.640625 50.34375 -1.953125 C 46.320312 -0.265625 41.894531 0.578125 37.0625 0.578125 C 30.84375 0.578125 25.332031 -0.742188 20.53125 -3.390625 C 15.738281 -6.035156 12 -9.695312 9.3125 -14.375 C 6.632812 -19.0625 5.296875 -24.359375 5.296875 -30.265625 C 5.296875 -36.171875 6.578125 -41.460938 9.140625 -46.140625 C 11.710938 -50.828125 15.242188 -54.472656 19.734375 -57.078125 C 24.222656 -59.691406 29.269531 -61 34.875 -61 C 40.476562 -61 45.503906 -59.691406 49.953125 -57.078125 C 54.398438 -54.472656 57.890625 -50.847656 60.421875 -46.203125 C 62.953125 -41.566406 64.21875 -36.253906 64.21875 -30.265625 Z M 34.875 -53.984375 C 29.039062 -53.984375 24.144531 -52.117188 20.1875 -48.390625 C 16.238281 -44.671875 14 -39.820312 13.46875 -33.84375 L 56.390625 -33.84375 C 55.859375 -39.820312 53.613281 -44.671875 49.65625 -48.390625 C 45.707031 -52.117188 40.78125 -53.984375 34.875 -53.984375 Z M 34.875 -53.984375 "/></g></g></g><g fill="#ffffff" fill-opacity="1"><g transform="translate(408.890445, 684.342968)"><g><path d="M 42.234375 -61 C 49.835938 -61 55.878906 -58.789062 60.359375 -54.375 C 64.847656 -49.96875 67.09375 -43.546875 67.09375 -35.109375 L 67.09375 0 L 58.921875 0 L 58.921875 -34.296875 C 58.921875 -40.585938 57.347656 -45.382812 54.203125 -48.6875 C 51.054688 -51.988281 46.570312 -53.640625 40.75 -53.640625 C 34.21875 -53.640625 29.050781 -51.703125 25.25 -47.828125 C 21.457031 -43.953125 19.5625 -38.597656 19.5625 -31.765625 L 19.5625 0 L 11.390625 0 L 11.390625 -60.546875 L 19.21875 -60.546875 L 19.21875 -49.375 C 21.445312 -53.0625 24.535156 -55.921875 28.484375 -57.953125 C 32.429688 -59.984375 37.015625 -61 42.234375 -61 Z M 42.234375 -61 "/></g></g></g><g fill="#ffffff" fill-opacity="1"><g transform="translate(486.80362, 684.342968)"><g><path d="M 66.640625 -85.40625 L 66.640625 0 L 58.8125 0 L 58.8125 -11.96875 C 56.351562 -7.90625 53.109375 -4.796875 49.078125 -2.640625 C 45.054688 -0.492188 40.515625 0.578125 35.453125 0.578125 C 29.773438 0.578125 24.632812 -0.722656 20.03125 -3.328125 C 15.425781 -5.941406 11.816406 -9.585938 9.203125 -14.265625 C 6.597656 -18.953125 5.296875 -24.285156 5.296875 -30.265625 C 5.296875 -36.253906 6.597656 -41.585938 9.203125 -46.265625 C 11.816406 -50.941406 15.425781 -54.566406 20.03125 -57.140625 C 24.632812 -59.710938 29.773438 -61 35.453125 -61 C 40.359375 -61 44.785156 -59.984375 48.734375 -57.953125 C 52.691406 -55.921875 55.9375 -52.945312 58.46875 -49.03125 L 58.46875 -85.40625 Z M 36.140625 -6.671875 C 40.359375 -6.671875 44.175781 -7.648438 47.59375 -9.609375 C 51.007812 -11.566406 53.691406 -14.347656 55.640625 -17.953125 C 57.597656 -21.554688 58.578125 -25.660156 58.578125 -30.265625 C 58.578125 -34.867188 57.597656 -38.972656 55.640625 -42.578125 C 53.691406 -46.191406 51.007812 -48.972656 47.59375 -50.921875 C 44.175781 -52.878906 40.359375 -53.859375 36.140625 -53.859375 C 31.835938 -53.859375 27.976562 -52.878906 24.5625 -50.921875 C 21.15625 -48.972656 18.472656 -46.191406 16.515625 -42.578125 C 14.554688 -38.972656 13.578125 -34.867188 13.578125 -30.265625 C 13.578125 -25.660156 14.554688 -21.554688 16.515625 -17.953125 C 18.472656 -14.347656 21.15625 -11.566406 24.5625 -9.609375 C 27.976562 -7.648438 31.835938 -6.671875 36.140625 -6.671875 Z M 36.140625 -6.671875 "/></g></g></g><g fill="#ffffff" fill-opacity="1"><g transform="translate(564.831887, 684.342968)"><g><path d="M 11.390625 -60.546875 L 19.5625 -60.546875 L 19.5625 0 L 11.390625 0 Z M 15.53125 -73.78125 C 13.84375 -73.78125 12.421875 -74.351562 11.265625 -75.5 C 10.117188 -76.65625 9.546875 -78.035156 9.546875 -79.640625 C 9.546875 -81.179688 10.117188 -82.523438 11.265625 -83.671875 C 12.421875 -84.828125 13.84375 -85.40625 15.53125 -85.40625 C 17.21875 -85.40625 18.632812 -84.847656 19.78125 -83.734375 C 20.9375 -82.617188 21.515625 -81.296875 21.515625 -79.765625 C 21.515625 -78.078125 20.9375 -76.65625 19.78125 -75.5 C 18.632812 -74.351562 17.21875 -73.78125 15.53125 -73.78125 Z M 15.53125 -73.78125 "/></g></g></g><g fill="#ffffff" fill-opacity="1"><g transform="translate(595.789998, 684.342968)"><g><path d="M 32.578125 -61 C 40.472656 -61 46.53125 -59.019531 50.75 -55.0625 C 54.976562 -51.113281 57.09375 -45.265625 57.09375 -37.515625 L 57.09375 0 L 49.265625 0 L 49.265625 -9.4375 C 47.421875 -6.289062 44.710938 -3.832031 41.140625 -2.0625 C 37.578125 -0.300781 33.335938 0.578125 28.421875 0.578125 C 21.671875 0.578125 16.300781 -1.03125 12.3125 -4.25 C 8.320312 -7.476562 6.328125 -11.738281 6.328125 -17.03125 C 6.328125 -22.175781 8.1875 -26.320312 11.90625 -29.46875 C 15.632812 -32.613281 21.5625 -34.1875 29.6875 -34.1875 L 48.921875 -34.1875 L 48.921875 -37.859375 C 48.921875 -43.078125 47.460938 -47.046875 44.546875 -49.765625 C 41.628906 -52.492188 37.367188 -53.859375 31.765625 -53.859375 C 27.929688 -53.859375 24.25 -53.222656 20.71875 -51.953125 C 17.1875 -50.691406 14.15625 -48.953125 11.625 -46.734375 L 7.9375 -52.828125 C 11.007812 -55.429688 14.691406 -57.441406 18.984375 -58.859375 C 23.285156 -60.285156 27.816406 -61 32.578125 -61 Z M 29.6875 -5.875 C 34.289062 -5.875 38.242188 -6.925781 41.546875 -9.03125 C 44.847656 -11.144531 47.304688 -14.195312 48.921875 -18.1875 L 48.921875 -28.078125 L 29.921875 -28.078125 C 19.566406 -28.078125 14.390625 -24.472656 14.390625 -17.265625 C 14.390625 -13.734375 15.726562 -10.953125 18.40625 -8.921875 C 21.09375 -6.890625 24.851562 -5.875 29.6875 -5.875 Z M 29.6875 -5.875 "/></g></g></g></svg>