<svg width="1080" height="1080" viewBox="0 0 1080 1080" fill="none" xmlns="http://www.w3.org/2000/svg">
<path d="M594.016 98.5555L826.704 747.555H724.829L631.766 475.889L531.141 182.826H526.1L425.496 475.889L332.412 747.555H233.058L465.725 98.5555H594.016Z" fill="#F38F10"/>
<path d="M483.238 643.58C481.821 643.58 480.598 643.522 479.571 643.413C478.54 643.314 477.519 642.658 476.509 641.434C475.285 639.798 474.16 638.163 473.134 636.538C472.118 634.903 470.993 633.262 469.759 631.621C467.519 628.153 465.384 624.58 463.342 620.913C461.301 617.236 459.155 613.554 456.905 609.871C454.655 605.996 452.405 602.528 450.155 599.455C449.347 598.236 448.582 596.965 447.863 595.642C447.155 594.309 446.389 592.929 445.571 591.496C443.321 587.621 440.811 583.798 438.051 580.017C435.301 576.241 432.597 572.512 429.946 568.83C427.696 565.361 425.551 561.944 423.509 558.58C421.467 555.205 419.321 551.783 417.071 548.309C414.832 544.225 412.696 540.194 410.655 536.205C408.613 532.22 406.363 528.288 403.905 524.413C399.207 517.262 394.717 509.965 390.426 502.517C386.134 495.059 381.639 487.757 376.946 480.6C373.889 475.908 370.874 471.413 367.905 467.121C364.946 462.83 361.832 458.548 358.571 454.267C355.915 450.798 353.467 447.324 351.217 443.85C348.967 440.382 347.03 436.699 345.405 432.809C352.749 432.809 360.144 432.913 367.592 433.121C375.051 433.33 382.457 433.434 389.821 433.434C392.681 433.434 395.535 433.33 398.384 433.121C401.243 432.913 404.103 432.809 406.967 432.809C411.868 432.616 416.717 432.569 421.509 432.663C426.311 432.762 431.061 432.809 435.759 432.809C438.009 432.809 440.259 432.809 442.509 432.809C444.759 432.809 446.999 432.809 449.238 432.809C450.264 432.809 451.592 432.762 453.217 432.663C454.853 432.569 456.082 432.72 456.905 433.121C457.915 433.736 458.884 435.012 459.801 436.955C460.728 438.903 461.499 440.382 462.113 441.392C464.155 445.074 466.394 448.955 468.842 453.038C471.301 456.304 473.749 459.725 476.196 463.309C478.655 466.882 480.905 470.496 482.946 474.163C485.181 477.845 487.269 481.574 489.217 485.35C491.16 489.132 493.259 492.955 495.509 496.83C497.952 500.72 500.394 504.658 502.842 508.642C505.301 512.616 507.853 516.642 510.509 520.725C512.144 522.975 513.728 525.278 515.259 527.621C516.785 529.97 518.264 532.371 519.696 534.83C521.332 536.871 522.915 539.017 524.446 541.267C525.973 543.507 527.249 545.85 528.28 548.309C537.874 534.007 547.061 519.507 555.842 504.809C564.634 490.1 573.618 475.496 582.801 460.996C585.051 457.319 587.243 453.538 589.384 449.663C591.535 445.788 593.738 442.116 595.988 438.642C596.598 437.616 597.155 436.746 597.655 436.038C598.165 435.319 598.832 434.757 599.655 434.35C601.082 433.533 602.764 433.179 604.696 433.288C606.639 433.387 608.327 433.434 609.759 433.434C618.535 433.434 627.217 433.486 635.801 433.58C644.384 433.679 653.061 433.632 661.842 433.434C669.603 433.225 677.311 433.121 684.967 433.121C692.618 433.121 700.327 433.324 708.092 433.725C707.269 438.225 705.327 442.517 702.259 446.6C699.202 450.684 696.348 454.767 693.696 458.85C690.431 463.965 687.217 469.074 684.051 474.184C680.884 479.283 677.665 484.387 674.405 489.496C671.332 493.986 668.571 498.679 666.113 503.58C663.665 508.486 661.014 513.283 658.155 517.975C655.098 523.09 652.035 528.095 648.967 532.996C645.91 537.887 642.848 542.783 639.78 547.684C636.915 552.184 634.009 556.58 631.051 560.871C628.092 565.153 625.181 569.642 622.321 574.35C619.665 578.84 616.853 583.33 613.884 587.83C610.926 592.319 608.019 596.809 605.176 601.309C602.103 605.798 599.139 610.444 596.28 615.246C593.415 620.038 590.353 624.58 587.092 628.871C586.269 629.887 585.499 630.955 584.78 632.08C584.071 633.205 583.311 634.283 582.509 635.309C581.884 636.132 581.264 637.153 580.655 638.371C580.04 639.595 579.327 640.616 578.509 641.434C577.077 642.449 575.342 642.955 573.301 642.955C571.259 642.955 569.426 642.955 567.801 642.955C564.327 643.163 560.905 643.173 557.53 642.975C554.165 642.767 550.749 642.663 547.28 642.663C543.598 642.663 539.915 642.663 536.238 642.663C532.571 642.663 528.894 642.663 525.217 642.663C521.952 642.663 518.634 642.663 515.259 642.663C511.884 642.663 508.457 642.663 504.988 642.663C503.155 642.663 501.311 642.663 499.467 642.663C497.634 642.663 495.801 642.663 493.967 642.663C492.327 642.663 490.592 642.819 488.759 643.121C486.926 643.423 485.082 643.58 483.238 643.58ZM479.884 638.975C482.743 638.975 485.655 638.882 488.613 638.684C491.571 638.475 494.478 638.371 497.342 638.371C500.202 638.371 503.16 638.371 506.217 638.371C509.285 638.371 512.348 638.371 515.405 638.371C521.332 638.371 527.207 638.324 533.03 638.225C538.848 638.116 544.618 638.163 550.342 638.371C553.186 638.371 556.04 638.475 558.905 638.684C561.764 638.882 564.728 638.871 567.801 638.663C568.811 638.47 570.082 638.423 571.613 638.517C573.155 638.616 574.332 638.465 575.155 638.059C576.165 637.658 577.082 636.59 577.905 634.85C578.723 633.116 579.436 631.84 580.051 631.017C582.91 626.934 585.613 622.85 588.155 618.767C590.707 614.684 593.321 610.699 595.988 606.809C601.905 598.241 607.618 589.569 613.134 580.788C618.644 571.996 624.264 563.319 629.988 554.746C635.905 545.955 641.41 537.121 646.509 528.246C651.618 519.361 656.728 510.423 661.842 501.434C667.967 490.616 674.551 479.996 681.592 469.58C688.644 459.163 695.436 448.642 701.967 438.017C670.311 437.616 638.556 437.616 606.696 438.017C604.863 438.017 603.478 438.074 602.551 438.184C601.634 438.283 600.665 439.153 599.655 440.788C598.624 442.621 597.551 444.512 596.426 446.455C595.311 448.387 594.243 450.278 593.217 452.121C591.176 455.996 588.978 459.778 586.634 463.455C584.285 467.121 581.884 470.798 579.426 474.475C574.936 481.423 570.598 488.47 566.405 495.621C562.223 502.762 557.988 509.908 553.696 517.059C551.249 520.934 548.801 524.913 546.342 528.996C543.894 533.08 541.348 537.069 538.696 540.955C537.056 543.611 535.368 546.215 533.634 548.767C531.894 551.324 529.806 553.621 527.363 555.663C525.514 552.804 523.769 549.892 522.134 546.934C520.509 543.965 518.78 541.153 516.946 538.496C514.696 535.028 512.394 531.611 510.051 528.246C507.702 524.871 505.613 521.345 503.78 517.663C501.53 513.58 499.077 509.653 496.426 505.871C493.769 502.095 491.321 498.267 489.071 494.392C487.03 490.715 484.988 486.934 482.946 483.059C480.905 479.173 478.655 475.491 476.196 472.017C473.957 468.757 471.764 465.444 469.613 462.08C467.472 458.705 465.28 455.387 463.03 452.121C461.999 450.486 461.03 448.798 460.113 447.059C459.196 445.324 458.228 443.538 457.217 441.705C457.009 440.887 456.597 440.017 455.988 439.1C455.374 438.184 454.66 437.517 453.842 437.1C453.019 436.699 451.894 436.6 450.467 436.809C449.035 437.007 447.91 437.1 447.092 437.1C438.926 437.1 430.759 437.1 422.592 437.1C414.426 437.1 406.155 437.309 397.78 437.725C390.222 437.923 382.665 437.866 375.113 437.559C367.556 437.257 359.894 437.1 352.134 437.1C354.176 440.574 356.472 443.949 359.03 447.225C361.582 450.491 363.988 453.861 366.238 457.33C368.889 460.595 371.389 464.069 373.738 467.746C376.082 471.413 378.478 475.09 380.926 478.767C385.217 485.298 389.405 491.934 393.488 498.684C397.571 505.423 401.655 512.158 405.738 518.892C409.821 525.434 413.644 532.179 417.217 539.121C420.801 546.069 424.738 552.804 429.03 559.33C431.28 562.595 433.577 565.913 435.926 569.288C438.269 572.663 440.571 576.09 442.821 579.559C443.832 580.975 444.905 582.455 446.03 583.996C447.155 585.528 448.124 587.111 448.946 588.746C449.749 589.762 450.41 590.887 450.926 592.121C451.436 593.345 452.103 594.569 452.926 595.788C455.16 599.054 457.452 602.423 459.801 605.892C462.16 609.366 464.259 612.944 466.092 616.621C468.134 620.288 470.28 624.116 472.53 628.1C474.78 632.09 477.228 635.715 479.884 638.975Z" fill="#F38F10"/>
<path d="M265.91 883.77H206.076L193.181 912.457H181.368L230.472 805.041H241.681L290.785 912.457H278.806L265.91 883.77ZM261.785 874.561L235.993 816.853L210.222 874.561H261.785Z" fill="white"/>
<path d="M327.911 913.228C321.354 913.228 315.083 912.285 309.098 910.395C303.125 908.494 298.453 906.114 295.078 903.249L299.973 894.666C303.348 897.322 307.588 899.494 312.703 901.186C317.828 902.869 323.151 903.707 328.682 903.707C336.041 903.707 341.484 902.561 345.015 900.27C348.541 897.968 350.307 894.718 350.307 890.52C350.307 887.551 349.333 885.223 347.39 883.541C345.442 881.848 342.984 880.572 340.015 879.707C337.057 878.832 333.125 877.989 328.223 877.166C321.666 875.931 316.395 874.676 312.411 873.395C308.421 872.119 305.02 869.947 302.203 866.874C299.38 863.806 297.973 859.561 297.973 854.145C297.973 847.395 300.786 841.874 306.411 837.582C312.046 833.28 319.88 831.124 329.911 831.124C335.119 831.124 340.333 831.822 345.557 833.207C350.776 834.582 355.078 836.395 358.453 838.645L353.682 847.395C347.041 842.785 339.119 840.478 329.911 840.478C322.953 840.478 317.703 841.707 314.161 844.166C310.63 846.624 308.869 849.848 308.869 853.832C308.869 856.905 309.869 859.364 311.869 861.207C313.869 863.041 316.348 864.395 319.307 865.27C322.276 866.145 326.375 867.041 331.598 867.957C338.041 869.181 343.203 870.41 347.078 871.645C350.963 872.869 354.291 874.968 357.057 877.936C359.817 880.895 361.203 884.989 361.203 890.207C361.203 897.265 358.255 902.869 352.369 907.02C346.494 911.16 338.338 913.228 327.911 913.228Z" fill="white"/>
<path d="M414.76 913.228C406.77 913.228 399.635 911.494 393.343 908.02C387.051 904.535 382.114 899.645 378.53 893.353C374.958 887.061 373.176 879.978 373.176 872.103C373.176 864.228 374.958 857.176 378.53 850.936C382.114 844.686 387.051 839.827 393.343 836.353C399.635 832.869 406.77 831.124 414.76 831.124C421.718 831.124 427.931 832.478 433.405 835.186C438.874 837.895 443.197 841.864 446.364 847.082L438.239 852.603C435.583 848.619 432.208 845.634 428.114 843.645C424.015 841.645 419.562 840.645 414.76 840.645C408.926 840.645 403.681 841.952 399.03 844.561C394.374 847.16 390.744 850.869 388.135 855.686C385.52 860.494 384.218 865.968 384.218 872.103C384.218 878.343 385.52 883.843 388.135 888.603C390.744 893.353 394.374 897.035 399.03 899.645C403.681 902.259 408.926 903.561 414.76 903.561C419.562 903.561 424.015 902.593 428.114 900.645C432.208 898.702 435.583 895.739 438.239 891.749L446.364 897.27C443.197 902.478 438.848 906.447 433.322 909.166C427.806 911.874 421.619 913.228 414.76 913.228Z" fill="white"/>
<path d="M537.984 875.478H470.463C471.073 883.869 474.297 890.645 480.13 895.811C485.963 900.978 493.328 903.561 502.234 903.561C507.244 903.561 511.849 902.666 516.047 900.874C520.239 899.082 523.869 896.452 526.942 892.978L533.067 900.02C529.484 904.327 525.005 907.603 519.63 909.853C514.265 912.103 508.364 913.228 501.922 913.228C493.63 913.228 486.281 911.468 479.88 907.936C473.489 904.41 468.505 899.53 464.922 893.291C461.349 887.041 459.567 879.978 459.567 872.103C459.567 864.228 461.276 857.176 464.692 850.936C468.119 844.686 472.828 839.827 478.817 836.353C484.802 832.869 491.531 831.124 499.005 831.124C506.474 831.124 513.177 832.869 519.109 836.353C525.036 839.827 529.692 844.66 533.067 850.853C536.442 857.035 538.13 864.119 538.13 872.103L537.984 875.478ZM499.005 840.478C491.224 840.478 484.698 842.968 479.422 847.936C474.156 852.895 471.172 859.364 470.463 867.332H527.692C526.984 859.364 523.989 852.895 518.713 847.936C513.448 842.968 506.88 840.478 499.005 840.478Z" fill="white"/>
<path d="M601.5 831.124C611.635 831.124 619.693 834.072 625.667 839.957C631.651 845.832 634.646 854.395 634.646 865.645V912.457H623.75V866.728C623.75 858.343 621.651 851.947 617.458 847.541C613.26 843.14 607.281 840.936 599.521 840.936C590.812 840.936 583.922 843.52 578.854 848.686C573.797 853.853 571.271 860.994 571.271 870.103V912.457H560.375V831.728H570.812V846.624C573.781 841.707 577.901 837.895 583.167 835.186C588.427 832.478 594.542 831.124 601.5 831.124Z" fill="white"/>
<path d="M737.925 798.582V912.457H727.488V896.499C724.207 901.916 719.884 906.061 714.509 908.936C709.144 911.801 703.092 913.228 696.342 913.228C688.769 913.228 681.915 911.494 675.78 908.02C669.639 904.535 664.826 899.676 661.342 893.436C657.868 887.186 656.134 880.077 656.134 872.103C656.134 864.119 657.868 857.009 661.342 850.77C664.826 844.535 669.639 839.702 675.78 836.27C681.915 832.843 688.769 831.124 696.342 831.124C702.884 831.124 708.785 832.478 714.05 835.186C719.326 837.895 723.655 841.864 727.03 847.082V798.582H737.925ZM697.259 903.561C702.884 903.561 707.972 902.259 712.53 899.645C717.082 897.035 720.66 893.327 723.259 888.52C725.868 883.718 727.175 878.244 727.175 872.103C727.175 865.968 725.868 860.494 723.259 855.686C720.66 850.869 717.082 847.16 712.53 844.561C707.972 841.952 702.884 840.645 697.259 840.645C691.519 840.645 686.373 841.952 681.821 844.561C677.28 847.16 673.701 850.869 671.092 855.686C668.478 860.494 667.175 865.968 667.175 872.103C667.175 878.244 668.478 883.718 671.092 888.52C673.701 893.327 677.28 897.035 681.821 899.645C686.373 902.259 691.519 903.561 697.259 903.561Z" fill="white"/>
<path d="M768.297 831.728H779.193V912.457H768.297V831.728ZM773.818 814.082C771.568 814.082 769.672 813.322 768.13 811.791C766.599 810.249 765.838 808.41 765.838 806.27C765.838 804.218 766.599 802.426 768.13 800.895C769.672 799.353 771.568 798.582 773.818 798.582C776.068 798.582 777.953 799.327 779.484 800.811C781.026 802.301 781.797 804.061 781.797 806.103C781.797 808.353 781.026 810.249 779.484 811.791C777.953 813.322 776.068 814.082 773.818 814.082Z" fill="white"/>
<path d="M837.824 831.124C848.35 831.124 856.428 833.765 862.053 839.041C867.689 844.306 870.512 852.103 870.512 862.436V912.457H860.074V899.874C857.616 904.072 854.001 907.348 849.241 909.707C844.491 912.056 838.835 913.228 832.283 913.228C823.283 913.228 816.121 911.082 810.803 906.791C805.48 902.489 802.824 896.806 802.824 889.749C802.824 882.89 805.303 877.364 810.262 873.166C815.23 868.973 823.137 866.874 833.97 866.874H859.616V861.978C859.616 855.02 857.668 849.728 853.783 846.103C849.892 842.468 844.21 840.645 836.741 840.645C831.626 840.645 826.72 841.494 822.012 843.186C817.303 844.869 813.262 847.186 809.887 850.145L804.97 842.02C809.064 838.551 813.975 835.869 819.699 833.978C825.434 832.077 831.475 831.124 837.824 831.124ZM833.97 904.624C840.105 904.624 845.376 903.223 849.783 900.416C854.184 897.598 857.46 893.53 859.616 888.207V875.02H834.283C820.475 875.02 813.574 879.827 813.574 889.436C813.574 894.145 815.355 897.853 818.928 900.561C822.512 903.27 827.522 904.624 833.97 904.624Z" fill="white"/>
</svg>
